<?xml version="1.0" encoding="UTF-8"?>
<svg id="Layer_2" data-name="Layer 2" xmlns="http://www.w3.org/2000/svg" viewBox="0 0 256.68 44.58">
  <defs>
    <style>
      .cls-1 {
        fill: #0a2938;
      }

      .cls-2 {
        fill: #0bb09d;
      }
    </style>
  </defs>
  <g id="Layer_1-2" data-name="Layer 1">
    <g id="Layer_2-2" data-name="Layer 2">
      <g id="Layer_1-2" data-name="Layer 1-2">
        <path class="cls-1" d="M91.12,21.49c2.53,0,4.2-.88,5.72-2.26.18-.16.28-.38.28-.62-.02-.45-.38-.81-.83-.82-.21,0-.41.09-.55.24-1.32,1.2-2.66,1.87-4.57,1.87-3.38,0-5.95-2.79-5.95-6.35v-.04c0-3.54,2.55-6.31,5.95-6.31,1.89,0,3.23.7,4.42,1.76.17.11.36.18.56.18.47,0,.86-.38.88-.86-.01-.27-.14-.53-.35-.7-1.51-1.34-3.48-2.05-5.49-2-4.53,0-7.78,3.61-7.78,7.96v.04c0,4.42,3.28,7.92,7.72,7.92Z"/>
        <path class="cls-1" d="M118.07,5.73c-.48.01-.86.4-.86.88v13.85c0,.48.39.87.87.87s.87-.39.87-.87V6.61c0-.48-.39-.88-.88-.88Z"/>
        <path class="cls-1" d="M137.88,5.73c-.38.03-.71.26-.87.62l-5.33,12.79-5.32-12.74c-.13-.39-.49-.65-.9-.66-.47,0-.86.38-.88.86,0,.14.03.27.09.4l5.93,13.7c.14.44.55.73,1.01.72h.09c.46,0,.87-.29,1.01-.72l5.96-13.76c.04-.11.07-.23.06-.35,0-.47-.38-.85-.85-.86,0,0,0,0,0,0Z"/>
        <path class="cls-1" d="M162.13,20.46c-.03.49.35.9.83.92.49.03.9-.35.92-.83,0-.03,0-.06,0-.09V7.45h4.46c.44,0,.81-.35.81-.79,0-.45-.37-.81-.81-.81h-10.68c-.45,0-.81.37-.81.81,0,.44.37.79.81.79h4.46v13.01Z"/>
        <path class="cls-1" d="M75.97,33.7c1.2-.53,2.44-1.56,2.44-3.56v-.04c.01-.92-.34-1.8-.99-2.46-.88-.86-2.26-1.36-4.02-1.36h-5.69c-.48.01-.86.4-.86.88v13.62c0,.48.38.87.86.88h5.98c3.37,0,5.58-1.56,5.58-4.2v-.04c0-2.12-1.47-3.17-3.3-3.72ZM77.51,37.35c0,1.71-1.44,2.75-3.78,2.75h-5.17v-12.26h4.68c2.2,0,3.41.99,3.41,2.5v.05c0,1.8-1.44,2.75-3.54,2.75h-2.2c-.37,0-.68.27-.74.63-.01.04-.02.09-.03.13,0,.05.01.09.03.14.06.36.37.63.74.63h2.51c2.68,0,4.09.96,4.09,2.64v.03Z"/>
        <path class="cls-1" d="M90.79,26.01c-4.68,0-7.87,3.71-7.87,7.96v.04c0,4.24,3.14,7.91,7.83,7.91s7.87-3.71,7.87-7.96v-.04c0-4.24-3.14-7.91-7.82-7.91ZM96.81,34.01c0,3.5-2.5,6.31-6.02,6.31s-6.07-2.86-6.07-6.35v-.04c0-3.5,2.51-6.31,6.02-6.31s6.06,2.86,6.06,6.35v.04Z"/>
        <path class="cls-1" d="M108.51,26.28h-4.54c-.44,0-.8.36-.8.8,0,.01,0,.02,0,.03.01.43.36.77.79.77h4.54c3.89,0,6.37,2.68,6.37,6.09v.04c0,3.41-2.48,6.05-6.37,6.05h-3.61v-9.77c0-.48-.39-.86-.87-.87-.11,0-.22.02-.33.07-.32.13-.53.45-.53.8v10.5c0,.48.38.87.86.88h4.49c4.83,0,8.17-3.37,8.17-7.69v-.04c0-4.34-3.34-7.65-8.17-7.65Z"/>
        <path class="cls-1" d="M132.27,26.16c-.37,0-.59.22-.81.53l-5.12,7.32-5.08-7.33c-.22-.31-.46-.53-.83-.53-.48,0-.88.37-.9.86,0,.21.08.42.2.59l5.71,8v5.27c-.03.49.35.9.83.92.49.03.9-.35.92-.83,0-.03,0-.06,0-.09v-5.31l5.69-7.91c.13-.19.22-.41.24-.64,0-.47-.38-.86-.85-.86,0,0,0,0,0,0Z"/>
        <path class="cls-1" d="M170.07,26.16c-.48,0-.88.39-.88.88v6.07h-6.75c-.44.02-.8.37-.81.81,0,.13.04.26.1.37.14.27.41.43.71.44h6.75v6.15c-.03.48.34.89.82.91.48.03.89-.34.91-.82,0-.03,0-.06,0-.09v-13.85c0-.48-.38-.87-.86-.88Z"/>
        <path class="cls-1" d="M159.43,26.16c-.48.01-.86.4-.86.88v13.85c0,.48.39.87.87.87.48,0,.87-.39.87-.87h0v-13.85c0-.48-.4-.88-.88-.88Z"/>
        <path class="cls-1" d="M199.71,26.28h-5.77c-.48.01-.86.4-.86.88v13.73c0,.48.39.87.87.87.48,0,.87-.39.87-.87h0v-13.01h4.75c2.48,0,3.93,1.14,3.93,3.03v.04c0,1.98-1.65,3.17-3.96,3.17h-2.55c-.43.02-.76.39-.74.82.02.4.34.71.74.74h2.24l4.33,5.63c.18.28.48.45.81.46.47-.01.85-.39.88-.86-.01-.24-.11-.47-.29-.64l-3.82-4.92c2.4-.46,4.11-1.92,4.11-4.46v-.05c.03-1.13-.4-2.22-1.18-3.04-.96-.97-2.48-1.54-4.37-1.54Z"/>
        <path class="cls-1" d="M234.61,26.28h-4.89c-.48.01-.86.4-.86.88v13.73c0,.48.39.87.87.87.48,0,.87-.39.87-.87h0v-13.01h3.89c2.48,0,4.13,1.14,4.13,3.34v.04c0,2.02-1.67,3.38-4.22,3.38h-1.62c-.43.02-.76.39-.74.82.02.4.34.71.74.74v.02h1.56c3.28,0,6.05-1.71,6.05-5.03v-.05c0-3.03-2.29-4.88-5.77-4.88Z"/>
        <path class="cls-1" d="M255.83,26.16c-.37,0-.6.22-.81.53l-5.12,7.32-5.08-7.33c-.22-.31-.46-.53-.83-.53-.48,0-.88.37-.9.86,0,.21.08.42.2.59l5.71,8v5.27c0,.49.4.88.88.88.48,0,.87-.39.88-.88v-5.31l5.69-7.91c.13-.19.22-.41.24-.64,0-.47-.38-.86-.85-.86,0,0,0,0,0,0Z"/>
        <path class="cls-1" d="M74.41,6.43c-.15-.47-.59-.78-1.08-.77h-.09c-.55,0-.88.29-1.1.77l-6.25,13.65c-.07.14-.11.3-.11.46,0,.44.35.79.79.79,0,0,0,0,0,0,.38,0,.72-.24.84-.59l1.6-3.58h5.73c.44-.01.78-.37.77-.81-.01-.41-.33-.74-.73-.77-.01,0-.03,0-.04,0h-5.05l3.54-7.87,3.54,7.87.68,1.58,1.62,3.53c.13.37.47.62.86.64.46,0,.83-.38.82-.84,0-.15-.05-.3-.11-.44l-6.24-13.63Z"/>
        <path class="cls-1" d="M149.27,6.43c-.15-.47-.59-.78-1.08-.77h-.09c-.55,0-.88.29-1.1.77l-6.25,13.65c-.07.14-.11.3-.11.46,0,.44.35.79.79.79.38,0,.72-.24.84-.59l1.6-3.58h5.74c.43-.02.77-.36.79-.79,0-.42-.33-.76-.75-.78-.01,0-.03,0-.04,0h-5.05l3.54-7.87,3.54,7.87.68,1.58,1.6,3.54c.13.37.48.62.87.63.46,0,.83-.37.83-.83h0c0-.15-.04-.3-.11-.44l-6.25-13.63Z"/>
        <path class="cls-1" d="M105.56,7.45h6.21c.44,0,.8-.35.81-.79,0-.45-.36-.81-.81-.82h-10.67c-.45,0-.81.37-.81.81,0,.44.37.8.81.8h4.46Z"/>
        <path class="cls-1" d="M106.91,9.05c-.41-.26-.95-.14-1.21.28-.08.13-.13.29-.14.45,0,.03,0,.05.02.08h-.02v10.61c0,.49.39.88.88.88s.88-.39.88-.88v-10.6h-.02s.01-.05.02-.08c0-.3-.16-.57-.41-.73Z"/>
        <path class="cls-1" d="M177.77,12.68c-.44,0-.79.35-.79.79,0,.44.35.79.79.79h5.29c.43,0,.79-.35.79-.78,0,0,0-.01,0-.02,0-.43-.36-.78-.79-.79h-5.29Z"/>
        <path class="cls-1" d="M184.94,20.43c0-.43-.35-.79-.78-.79,0,0,0,0,0,0h-8.79V7.43h8.68c.44,0,.79-.35.79-.79s-.35-.79-.79-.79h-9.56c-.48.01-.86.41-.86.89v13.62c0,.48.38.87.86.88h9.67c.43,0,.79-.35.79-.78,0,0,0,0,0-.01Z"/>
        <path class="cls-1" d="M217.86,26.87c-.15-.47-.59-.78-1.08-.77h-.09c-.55,0-.88.29-1.1.77l-6.25,13.65c-.07.14-.11.3-.11.46,0,.43.35.79.78.79,0,0,0,0,0,0,.38,0,.72-.23.83-.59l1.62-3.58h5.74c.24,0,.46-.11.61-.3.11-.13.18-.3.19-.48,0-.42-.33-.76-.75-.78h-5.09l3.54-7.87,3.54,7.87.68,1.58,1.61,3.54c.13.37.47.62.86.64.46,0,.84-.37.84-.83h0c0-.15-.05-.3-.11-.44l-6.26-13.65Z"/>
        <path class="cls-1" d="M180.74,33.11c-.44.02-.77.4-.75.84.02.4.34.73.75.75h5.29c.44,0,.79-.35.79-.79,0,0,0,0,0,0,0-.43-.36-.78-.79-.79h-5.29Z"/>
        <path class="cls-1" d="M187.13,40.08h-8.79v-12.22h8.68c.44,0,.79-.35.79-.79s-.35-.79-.79-.79h-9.55c-.48.01-.86.4-.86.88v13.62c0,.48.38.87.86.88h9.67c.44,0,.79-.35.79-.79s-.35-.79-.79-.79h0Z"/>
        <path class="cls-1" d="M152.86,26.22h-10.68c-.45,0-.81.37-.81.81,0,.44.37.79.81.79h10.68c.44,0,.81-.35.81-.79,0-.45-.37-.81-.81-.81Z"/>
        <path class="cls-1" d="M147.98,29.43c-.28-.21-.66-.21-.94,0-.25.16-.4.43-.41.72,0,.03.01.05.01.08h-.02v10.61c-.03.49.35.9.83.92.49.03.9-.35.92-.83,0-.03,0-.06,0-.09v-10.6h-.01s.01-.05.01-.08c0-.29-.15-.57-.4-.72Z"/>
        <path class="cls-2" d="M48.92,13.08c-.58-.77-1.58-1.18-2.97-1.2-4.35-.1-12.27,3.62-16.69,9.09-.49.61-.89,1.28-1.2,1.99-.84.07-1.68.11-2.52.12h-1.63c-.83-.01-1.68-.05-2.52-.12-.31-.71-.71-1.38-1.2-1.99C15.76,15.5,7.84,11.78,3.49,11.87c-1.39.03-2.39.44-2.97,1.2-.47.62-.63,1.41-.45,2.16.09.37.24.72.44,1.04.11.17.25.32.42.44.05.03.1.05.15.07.08.03.16.03.24,0,.17-.07.32-.45.5-.81.17-.36.19-.77.07-1.15-.07-.22-.02-.46.12-.63.19-.25.68-.42,1.35-.45h.28c.12,0,.24,0,.37.01h.07l.34.03h.05c.13.01.26.03.39.05h.02l.45.08c3.81.75,9.75,3.71,13.41,8.23.15.19.29.38.41.58-4.33-.59-8.61-1.88-12.19-3.71-.46-.24-.89-.48-1.28-.7h0c-.45-.26-1.08-.33-1.33.24-.03.13-.06.27-.09.4-.02.33.12.64.36.86.5.31,1,.62,1.49.86,4.09,2.08,9,3.5,13.94,4.04.72,2.31.96,5.68.81,10.82-.1,3.59-1.04,5.95-2.71,6.83-1.29.67-3.05.43-4.71-.65h-.02c-6.4-3.9-10.3-10.86-10.28-18.35,0-1.17.1-2.35.29-3.51h0l.05-.26s0-.07.02-.11v-.05s0-.03,0-.05c.02-.09.03-.18.05-.26.06-.3.12-.6.2-.9,0-.02,0-.04.01-.06.08-.31.16-.62.24-.92h0s.24-.79.53-1.56h0s.37-1.08-.48-1.3c-.85-.22-1.13.41-1.41,1.1-.05.13-.1.27-.14.41h0l-.02.07c-.1.28-.18.56-.26.84-.02.05-.03.11-.05.16-.06.21-.12.42-.17.63v.05s-.06.19-.06.19c0,.03-.02.07-.03.1h0c-2.35,9.83,1.89,20.05,10.51,25.33h.01c1.21.81,2.63,1.27,4.09,1.3.86.01,1.71-.19,2.48-.58,1.6-.84,3.55-2.99,3.7-8.43.14-4.86-.05-8.23-.68-10.7.62.04,1.24.06,1.85.07h1.68c.61,0,1.23-.03,1.85-.07-.62,2.47-.81,5.84-.68,10.7.15,5.43,2.1,7.58,3.7,8.43.76.4,1.61.6,2.47.59,1.46-.04,2.88-.49,4.09-1.3h.01c8.62-5.28,12.86-15.51,10.51-25.34h0s-.02-.06-.03-.1-.03-.12-.05-.19v-.05c-.06-.21-.11-.42-.17-.63-.01-.05-.03-.11-.05-.16-.08-.28-.17-.56-.26-.84,0-.02-.01-.05-.02-.07h0c-.05-.13-.09-.27-.14-.41-.27-.69-.6-1.33-1.44-1.12s-.48,1.3-.48,1.3h0c.29.78.53,1.56.53,1.56h0c.09.31.17.61.24.92v.06c.09.3.15.6.21.9.02.09.04.18.05.26v.1l.02.11.05.26h0c.19,1.16.29,2.33.29,3.51.03,7.49-3.87,14.45-10.28,18.34h-.02c-1.67,1.09-3.42,1.32-4.7.65-1.67-.88-2.61-3.24-2.71-6.83-.15-5.13.09-8.51.8-10.82,4.93-.54,9.86-1.95,13.93-4.04.48-.24,1-.55,1.5-.84.24-.22.38-.53.36-.86-.03-.13-.06-.27-.1-.4-.24-.59-.88-.51-1.33-.24h0c-.39.23-.81.46-1.28.7-3.56,1.83-7.84,3.12-12.16,3.71.13-.2.27-.39.41-.58,3.65-4.51,9.59-7.48,13.41-8.22l.45-.08h.02c.13-.02.26-.04.39-.05h.05l.34-.03h.07c.13,0,.25-.01.37-.01h.28c.67.03,1.15.2,1.35.45.14.18.19.42.12.63-.12.38-.1.79.07,1.15.18.36.33.75.5.81.08.03.16.03.24,0,.05-.01.1-.04.15-.07.17-.12.31-.27.42-.44.2-.32.35-.67.44-1.04.18-.75.02-1.55-.45-2.16Z"/>
        <path class="cls-2" d="M20.72,16.76c0,2.21,1.79,4.01,4,4.01,2.21,0,4.01-1.79,4.01-4,0-2.21-1.79-4.01-4-4.01,0,0,0,0,0,0-2.21,0-4,1.79-4,4ZM26.86,16.76c0,1.18-.96,2.14-2.14,2.14-1.18,0-2.14-.96-2.14-2.14,0-1.18.96-2.14,2.14-2.14h0c1.18,0,2.14.96,2.14,2.14Z"/>
        <path class="cls-2" d="M5.75,11.47c.55.06,1.09-.17,1.41-.61h0C11.19,5.21,17.7,1.86,24.64,1.85h.16c6.94,0,13.45,3.36,17.48,9h0c.33.44.86.68,1.41.61.79-.12.72-.7.52-1.08C39.87,3.91,32.59,0,24.8,0h-.16c-7.8,0-15.08,3.9-19.41,10.39-.2.38-.27.96.52,1.08Z"/>
      </g>
    </g>
  </g>
</svg>